<svg width="194" height="100" viewBox="0 0 194 100" fill="none" xmlns="http://www.w3.org/2000/svg">
<path d="M169.008 87.75C165.411 84.304 161.867 80.9035 156.142 80.9035C153.808 80.8707 151.579 79.9194 149.94 78.2553C148.3 76.5912 147.381 74.3481 147.381 72.011C147.381 69.674 148.3 67.4309 149.94 65.7668C151.579 64.1027 153.808 63.1513 156.142 63.1186C160.114 63.0508 164.062 63.7468 167.771 65.169C170.158 64.7153 172.313 63.4461 173.868 61.5784C175.423 59.7106 176.281 57.3603 176.297 54.9291V28.158C176.282 25.3941 175.177 22.7479 173.222 20.7963C171.266 18.8447 168.619 17.7459 165.857 17.7395H139.396C136.661 17.7467 134.037 18.8252 132.086 20.7442C130.135 22.6631 129.012 25.2701 128.957 28.0074V28.158C128.962 31.856 128.238 35.5188 126.824 38.9357C125.411 42.3526 123.337 45.4564 120.722 48.0686C118.919 49.8726 116.881 51.4251 114.663 52.6843C117.128 54.6056 119.527 56.6105 121.856 58.6955C129.714 65.7907 136.809 73.6899 143.025 82.2641H120.372C117.159 78.5913 113.726 75.1184 110.09 71.8648C102.872 65.57 95.0823 59.9645 86.8216 55.1217L86.8356 55.1007C85.1825 54.1047 83.9009 52.5942 83.1867 50.8002C82.4726 49.0062 82.3652 47.0275 82.8811 45.1667C83.3969 43.3058 84.5076 41.6653 86.0432 40.496C87.5788 39.3268 89.4548 38.6931 91.3843 38.692H92.539C93.6377 38.692 94.7819 38.6675 95.9295 38.6447C97.1441 38.6144 98.3589 38.5975 99.5738 38.594H100.149C100.373 38.5764 100.597 38.5676 100.821 38.5677C103.582 38.5677 106.23 37.47 108.182 35.5162C110.134 33.5623 111.231 30.9124 111.231 28.1492C111.231 25.386 110.134 22.7361 108.182 20.7822C106.23 18.8284 103.582 17.7307 100.821 17.7307H73.905V82.2676H26.1679C20.9922 82.269 15.9324 80.7339 11.6287 77.8565C7.32505 74.979 3.97086 70.8886 1.99059 66.1026C0.0103182 61.3167 -0.507035 56.0504 0.503991 50.9701C1.51502 45.8898 4.00898 41.2239 7.67033 37.5626C8.25349 36.9789 8.86174 36.425 9.49506 35.9009C7.36562 32.2831 6.2298 28.166 6.20276 23.9672C6.17572 19.7683 7.25843 15.637 9.34111 11.992C11.4238 8.34696 14.4324 5.3179 18.0619 3.2119C21.6914 1.10589 25.8127 -0.00218249 30.0081 1.77058e-05H100.828C108 -0.00803939 114.902 2.73398 120.116 7.66242C125.334 2.74366 132.237 0.0133799 139.405 0.0332868H165.87C169.563 0.0268379 173.221 0.749627 176.635 2.16026C180.049 3.5709 183.151 5.64167 185.764 8.254C188.377 10.8663 190.45 13.9689 191.863 17.384C193.276 20.7991 194.002 24.4597 194 28.1562V54.9308C193.999 59.1609 193.046 63.3365 191.212 67.1476C189.378 70.9588 186.71 74.3078 183.407 76.9463C186.232 79.8571 189.973 81.7048 194 82.1783V100C181.353 99.5728 175.132 93.6193 169.008 87.75ZM20.1933 50.1033C19.0139 51.2842 18.2107 52.7887 17.8855 54.4264C17.5602 56.0641 17.7274 57.7615 18.366 59.3041C19.0045 60.8467 20.0857 62.1652 21.4728 63.0929C22.86 64.0205 24.4908 64.5157 26.1591 64.5159H56.2279V47.6361H26.1679C25.0599 47.6344 23.9625 47.8518 22.9387 48.2758C21.9149 48.6998 20.9849 49.322 20.2021 50.1068L20.1933 50.1033ZM23.9373 23.8137C23.938 25.3953 24.5545 26.9144 25.6559 28.0484C26.7574 29.1825 28.257 29.8424 29.8366 29.8879H56.2367V17.743H30.0081C28.399 17.7434 26.856 18.383 25.7177 19.5212C24.5795 20.6595 23.9391 22.2033 23.9373 23.8137Z" fill="white"/>
</svg>
