<svg width="112" height="58" viewBox="0 0 112 58" fill="none" xmlns="http://www.w3.org/2000/svg">
<path d="M97.1577 50.114C95.1017 48.146 93.0757 46.204 89.8037 46.204C88.4692 46.1853 87.1956 45.642 86.2585 44.6916C85.3214 43.7412 84.796 42.4602 84.796 41.1255C84.796 39.7908 85.3214 38.5098 86.2585 37.5594C87.1956 36.609 88.4692 36.0657 89.8037 36.047C92.0739 36.0083 94.3304 36.4058 96.4507 37.218C97.8148 36.9589 99.0465 36.2341 99.9354 35.1674C100.824 34.1007 101.315 32.7584 101.324 31.37V16.081C101.316 14.5025 100.684 12.9913 99.566 11.8768C98.4482 10.7622 96.9352 10.1347 95.3567 10.131H80.2317C78.6682 10.1351 77.1684 10.7511 76.0532 11.847C74.938 12.9429 74.2961 14.4318 74.2647 15.995V16.081C74.2678 18.193 73.8536 20.2848 73.0458 22.2362C72.2381 24.1876 71.0527 25.9601 69.5577 27.452C68.527 28.4822 67.3622 29.3689 66.0947 30.088C67.5037 31.1853 68.8748 32.3303 70.2057 33.521C74.6978 37.573 78.7532 42.0843 82.3057 46.981H69.3577C67.5215 44.8835 65.5588 42.9001 63.4807 41.042C59.3552 37.447 54.9025 34.2457 50.1807 31.48L50.1887 31.468C49.2438 30.8992 48.5113 30.0366 48.1031 29.012C47.6949 27.9875 47.6335 26.8574 47.9284 25.7947C48.2232 24.7319 48.8581 23.7951 49.7358 23.1273C50.6135 22.4595 51.6858 22.0976 52.7887 22.097H53.4487C54.0767 22.097 54.7307 22.083 55.3867 22.07C56.0809 22.0527 56.7753 22.043 57.4697 22.041H57.7987C57.9265 22.031 58.0546 22.026 58.1827 22.026C59.7608 22.026 61.2742 21.3991 62.39 20.2833C63.5058 19.1674 64.1327 17.654 64.1327 16.076C64.1327 14.498 63.5058 12.9846 62.39 11.8687C61.2742 10.7529 59.7608 10.126 58.1827 10.126H42.7977V46.983H15.5117C12.5534 46.9838 9.66125 46.1071 7.20131 44.4638C4.74136 42.8205 2.82414 40.4845 1.69224 37.7512C0.560341 35.018 0.264628 32.0104 0.842519 29.109C1.42041 26.2077 2.84593 23.543 4.93872 21.452C5.27205 21.1187 5.61972 20.8023 5.98172 20.503C4.76455 18.4369 4.11533 16.0856 4.09987 13.6876C4.08442 11.2897 4.70328 8.93027 5.89372 6.8486C7.08415 4.76694 8.80383 3.03705 10.8784 1.83431C12.953 0.631567 15.3087 -0.00125405 17.7067 2.4824e-06H58.1867C62.286 -0.00459892 66.2314 1.56137 69.2117 4.376C72.1941 1.5669 76.1397 0.00763362 80.2367 0.0190025H95.3637C97.4748 0.0153195 99.5658 0.428105 101.517 1.23372C103.468 2.03933 105.242 3.22195 106.735 4.71385C108.229 6.20575 109.413 7.97763 110.221 9.92801C111.029 11.8784 111.444 13.969 111.443 16.08V31.371C111.442 33.7868 110.897 36.1715 109.849 38.348C108.801 40.5246 107.276 42.4372 105.388 43.944C107.003 45.6064 109.141 46.6616 111.443 46.932V57.11C104.214 56.866 100.658 53.466 97.1577 50.114ZM12.0967 28.614C11.4226 29.2884 10.9635 30.1476 10.7776 31.0829C10.5917 32.0182 10.6872 32.9876 11.0522 33.8686C11.4172 34.7496 12.0352 35.5026 12.8281 36.0323C13.621 36.5621 14.5531 36.8449 15.5067 36.845H32.6937V27.205H15.5117C14.8784 27.204 14.2511 27.3282 13.666 27.5703C13.0808 27.8124 12.5492 28.1678 12.1017 28.616L12.0967 28.614ZM14.2367 13.6C14.2371 14.5032 14.5895 15.3708 15.2191 16.0185C15.8487 16.6661 16.7058 17.043 17.6087 17.069H32.6987V10.133H17.7067C16.787 10.1333 15.905 10.4985 15.2544 11.1486C14.6038 11.7986 14.2378 12.6803 14.2367 13.6Z" fill="black"/>
</svg>
