<svg width="32" height="32" viewBox="0 0 32 32" fill="none" xmlns="http://www.w3.org/2000/svg">
<path fill-rule="evenodd" clip-rule="evenodd" d="M7.66675 16.4167C7.66675 16.0331 7.97766 15.7222 8.36119 15.7222H23.639C24.0225 15.7222 24.3334 16.0331 24.3334 16.4167C24.3334 16.8002 24.0225 17.1111 23.639 17.1111H8.36119C7.97766 17.1111 7.66675 16.8002 7.66675 16.4167Z" fill="#333333"/>
<path fill-rule="evenodd" clip-rule="evenodd" d="M7.66675 10.8611C7.66675 10.4776 7.97766 10.1667 8.36119 10.1667H23.639C24.0225 10.1667 24.3334 10.4776 24.3334 10.8611C24.3334 11.2446 24.0225 11.5556 23.639 11.5556H8.36119C7.97766 11.5556 7.66675 11.2446 7.66675 10.8611Z" fill="#333333"/>
<path fill-rule="evenodd" clip-rule="evenodd" d="M7.66675 21.9722C7.66675 21.5887 7.97766 21.2778 8.36119 21.2778H23.639C24.0225 21.2778 24.3334 21.5887 24.3334 21.9722C24.3334 22.3558 24.0225 22.6667 23.639 22.6667H8.36119C7.97766 22.6667 7.66675 22.3558 7.66675 21.9722Z" fill="#333333"/>
</svg>
